<?xml version="1.0" standalone="no"?>
<!DOCTYPE svg PUBLIC "-//W3C//DTD SVG 20010904//EN"
 "http://www.w3.org/TR/2001/REC-SVG-20010904/DTD/svg10.dtd">
<svg version="1.0" xmlns="http://www.w3.org/2000/svg"
 width="498.000000pt" height="501.000000pt" viewBox="0 0 498.000000 501.000000"
 preserveAspectRatio="xMidYMid meet">

<g transform="translate(0.000000,501.000000) scale(0.100000,-0.100000)"
fill="#FFDE4D" stroke="none">
<path d="M470 4255 c-58 -18 -113 -64 -148 -123 l-27 -47 -3 -1515 c-2 -1493
-2 -1516 18 -1581 36 -121 129 -219 260 -275 44 -18 98 -19 1889 -22 1640 -2
1851 -1 1905 13 143 37 252 139 302 285 18 53 19 100 19 1140 l0 1085 -28 57
c-26 54 -68 96 -127 129 -17 10 -74 16 -180 19 l-155 5 -5 165 c-6 176 -10
193 -66 259 -15 18 -50 44 -78 59 l-51 27 -1215 5 c-1207 5 -1215 5 -1250 26
-19 11 -105 72 -190 134 -236 173 -210 165 -545 167 -220 2 -290 -1 -325 -12z
m614 -109 c18 -7 114 -73 213 -145 100 -72 200 -139 224 -149 41 -16 133 -17
1254 -22 949 -4 1215 -8 1232 -18 12 -7 35 -29 50 -49 27 -36 28 -40 31 -190
l4 -153 -1424 0 -1423 0 -51 -24 c-56 -26 -105 -73 -131 -126 -17 -33 -18
-112 -23 -1130 l-5 -1095 -26 -56 c-31 -66 -90 -128 -151 -161 -37 -20 -58
-23 -143 -23 -92 0 -104 2 -153 29 -65 36 -107 82 -141 156 l-26 55 0 1507 0
1507 21 28 c11 15 36 38 54 51 32 21 39 22 307 22 210 0 281 -3 307 -14z
m3402 -845 c23 -10 52 -34 65 -52 l24 -34 3 -1077 c2 -1064 2 -1077 -18 -1131
-29 -76 -91 -144 -165 -178 l-60 -29 -1663 0 -1664 0 22 28 c48 62 75 110 92
165 17 55 18 121 18 1126 l0 1068 23 43 c16 30 37 51 67 67 l43 23 1586 0
c1525 0 1588 -1 1627 -19z"/>
</g>
</svg>
