<?xml version="1.0" standalone="no"?>
<!DOCTYPE svg PUBLIC "-//W3C//DTD SVG 20010904//EN"
 "http://www.w3.org/TR/2001/REC-SVG-20010904/DTD/svg10.dtd">
<svg version="1.0" xmlns="http://www.w3.org/2000/svg"
 width="500.000000pt" height="500.000000pt" viewBox="0 0 500.000000 500.000000"
 preserveAspectRatio="xMidYMid meet">

<g transform="translate(0.000000,500.000000) scale(0.100000,-0.100000)"
fill="#000000" stroke="none">
<path d="M1461 3373 c-18 -9 -42 -31 -52 -47 -18 -30 -19 -67 -19 -791 0 -509
4 -773 11 -799 13 -47 80 -121 122 -135 21 -7 359 -12 977 -13 l945 -3 45 25
c24 14 58 45 75 68 l30 44 3 580 2 580 -39 39 c-38 39 -39 39 -118 39 l-80 0
-7 46 c-3 26 -6 66 -6 91 0 35 -6 50 -34 81 l-34 37 -630 5 -629 5 -74 55
c-143 108 -135 105 -304 108 -125 2 -156 0 -184 -15z m350 -56 c19 -13 72 -50
119 -83 l85 -59 600 -3 c330 -1 615 -5 633 -8 43 -7 62 -49 62 -139 l0 -65
-721 0 c-714 0 -722 0 -755 -21 -19 -11 -40 -31 -47 -42 -9 -17 -13 -164 -17
-588 l-5 -566 -28 -36 c-37 -49 -75 -67 -138 -67 -65 0 -112 28 -139 81 -19
37 -20 62 -20 803 l0 764 31 26 c30 25 35 26 168 26 128 0 141 -2 172 -23z
m1714 -429 l26 -23 2 -555 c2 -544 2 -556 -19 -590 -11 -19 -35 -45 -54 -57
l-33 -23 -850 0 c-809 0 -849 1 -835 18 9 9 24 33 34 52 16 32 18 80 22 594
l5 559 23 24 23 23 815 0 815 0 26 -22z"/>
</g>
</svg>
